<?xml version="1.0" standalone="no"?>
<!DOCTYPE svg PUBLIC "-//W3C//DTD SVG 20010904//EN"
 "http://www.w3.org/TR/2001/REC-SVG-20010904/DTD/svg10.dtd">
<svg version="1.0" xmlns="http://www.w3.org/2000/svg"
 width="512.000000pt" height="512.000000pt" viewBox="0 0 512.000000 512.000000"
 preserveAspectRatio="xMidYMid meet">
<metadata>
Created by potrace 1.14, written by Peter Selinger 2001-2017
</metadata>
<g transform="translate(0.000000,512.000000) scale(0.100000,-0.100000)"
fill="#000000" stroke="none">
<path d="M2035 4377 c-94 -31 -150 -81 -188 -166 -19 -41 -21 -67 -22 -233 0
-103 -3 -189 -6 -192 -2 -3 -5 4 -6 15 -3 33 -50 105 -93 142 -120 103 -299
84 -413 -43 -218 -242 -131 -622 171 -746 l57 -24 -225 0 c-303 0 -370 -20
-491 -140 -75 -74 -115 -144 -134 -237 -16 -75 -18 -304 -4 -378 29 -156 163
-309 314 -358 75 -25 83 -25 320 -26 l220 -1 -57 -24 c-274 -113 -378 -443
-217 -686 105 -156 261 -210 404 -139 71 36 115 89 151 187 6 14 9 -55 9 -175
1 -178 3 -203 22 -244 28 -63 77 -116 137 -147 70 -36 179 -37 248 -3 60 29
110 78 140 139 l23 47 0 705 0 705 -26 55 c-27 57 -53 88 -103 128 l-30 23 25
17 c43 30 81 76 108 132 l26 55 0 705 c0 697 0 706 -21 750 -26 55 -83 113
-139 140 -53 26 -148 34 -200 17z m170 -76 c49 -22 79 -51 108 -106 21 -40 21
-47 21 -725 l0 -685 -23 -47 c-25 -52 -70 -101 -116 -126 -27 -15 -84 -17
-509 -18 -424 -2 -480 -4 -494 -18 -15 -15 -15 -17 0 -32 14 -15 68 -16 495
-18 427 -1 481 -3 509 -18 44 -24 87 -71 114 -126 l24 -47 1 -670 c1 -412 -3
-683 -9 -705 -48 -171 -273 -220 -385 -84 -46 57 -51 91 -51 351 0 270 1 265
-72 262 -60 -3 -66 -11 -62 -75 12 -159 -130 -273 -284 -228 -69 20 -143 92
-186 183 -28 60 -31 75 -31 166 0 91 3 106 31 166 52 109 162 199 274 224 19
4 96 9 171 10 74 1 140 5 147 9 14 8 16 74 3 95 -8 12 -77 15 -408 16 -438 2
-447 3 -543 65 -99 64 -173 175 -187 282 -13 100 -6 301 12 364 39 137 149
247 285 285 33 9 154 13 438 14 328 1 395 4 403 16 13 21 11 87 -3 95 -7 4
-76 8 -153 9 -194 3 -265 27 -364 126 -171 170 -136 488 68 607 36 21 58 27
106 26 131 -1 216 -88 220 -225 1 -36 5 -71 8 -76 9 -15 103 -15 115 0 7 8 12
111 14 272 l3 260 27 41 c64 100 175 133 283 85z"/>
<path d="M2936 4379 c-53 -13 -114 -53 -154 -101 -63 -79 -63 -72 -60 -829 l3
-684 26 -55 c27 -56 64 -102 109 -133 24 -18 25 -18 5 -29 -36 -21 -87 -82
-114 -138 l-26 -55 0 -705 0 -705 23 -47 c108 -218 412 -219 518 -1 28 56 28
60 29 245 1 103 3 190 6 192 3 3 5 -4 6 -15 3 -33 50 -105 94 -143 120 -103
300 -83 413 46 216 245 130 620 -171 744 l-58 24 220 1 c250 2 247 2 300 19
166 53 295 192 331 357 16 78 18 304 2 380 -26 126 -127 263 -235 320 -107 57
-144 63 -397 63 l-231 1 54 19 c326 117 411 553 152 781 -57 51 -100 70 -173
76 -120 10 -230 -52 -284 -162 -14 -30 -27 -55 -28 -55 0 0 -1 84 -2 188 0
166 -3 192 -21 232 -61 136 -193 203 -337 169z m196 -95 c21 -13 50 -43 65
-66 l28 -41 3 -261 c2 -164 7 -265 14 -273 12 -15 86 -17 107 -4 10 7 15 31
16 83 1 96 38 159 120 200 174 90 383 -93 383 -334 0 -93 -19 -156 -70 -228
-54 -80 -138 -138 -238 -166 -13 -4 -89 -8 -168 -9 -156 -2 -162 -4 -162 -60
0 -61 -18 -58 412 -60 289 -1 405 -5 438 -14 138 -40 246 -148 286 -286 27
-94 24 -339 -6 -424 -35 -105 -96 -179 -192 -235 -82 -47 -108 -50 -526 -51
-328 -1 -395 -4 -403 -16 -13 -20 -11 -87 3 -95 6 -4 75 -8 153 -9 194 -3 271
-30 366 -127 96 -99 133 -253 93 -388 -26 -89 -90 -175 -160 -216 -89 -52
-212 -31 -279 47 -39 47 -48 75 -50 150 -1 36 -5 71 -9 77 -9 16 -99 15 -114
0 -9 -9 -12 -79 -12 -251 0 -260 -5 -294 -51 -351 -57 -68 -153 -95 -239 -66
-62 21 -105 60 -134 120 -21 46 -21 51 -21 725 1 678 1 680 23 725 27 55 58
90 109 121 l38 24 480 3 c410 2 482 4 494 17 14 13 14 17 0 30 -13 13 -80 15
-482 16 -519 1 -515 1 -581 66 -19 20 -45 56 -57 82 l-23 46 0 685 c0 644 1
687 18 720 68 130 212 171 328 94z"/>
</g>
</svg>
